<svg width="52" height="12" viewBox="0 0 52 12" fill="none" xmlns="http://www.w3.org/2000/svg">
<g clip-path="url(#clip0_22_13)">
<g clip-path="url(#clip1_22_13)">
<mask id="mask0_22_13" style="mask-type:luminance" maskUnits="userSpaceOnUse" x="0" y="0" width="52" height="13">
<path d="M52 13H0V0H52V13Z" fill="white"/>
</mask>
<g mask="url(#mask0_22_13)">
<path d="M51.6436 7.11079L48.1149 9.0646L46.1861 12.6391C46.0662 12.8612 45.8366 13 45.5865 13C45.3364 13 45.1069 12.8612 44.987 12.6391L43.0581 9.0646L39.6835 7.19407H0.685146C0.308247 7.19407 -5.34058e-05 6.88174 -5.34058e-05 6.5C-5.34058e-05 6.11826 0.308247 5.80593 0.685146 5.80593H39.6801L43.0547 3.9354L44.9835 0.360919C45.1034 0.138816 45.333 0 45.5831 0C45.8332 0 46.0627 0.138816 46.1826 0.360919L48.1115 3.9354L51.6402 5.88922C51.8595 6.01068 51.9965 6.24319 51.9965 6.49653C51.9999 6.75334 51.8629 6.98932 51.6436 7.11079ZM47.2824 5.05633C47.1659 4.99386 47.0734 4.89669 47.0117 4.7787L45.5865 2.14122L44.1613 4.7787C44.0996 4.89669 44.0037 4.99039 43.8907 5.05633L41.2834 6.5L43.8907 7.94367C44.0037 8.00614 44.0996 8.10331 44.1613 8.2213L45.5865 10.8623L47.0117 8.2213C47.0734 8.10331 47.1693 8.00961 47.2824 7.94367L49.8895 6.5L47.2824 5.05633Z" fill="#F5B754"/>
</g>
</g>
</g>
<defs>
<clipPath id="clip0_22_13">
<rect width="52" height="12" fill="white" transform="matrix(-1 0 0 1 52 0)"/>
</clipPath>
<clipPath id="clip1_22_13">
<rect width="52" height="13" fill="white" transform="matrix(-1 0 0 1 52 0)"/>
</clipPath>
</defs>
</svg>
